<svg xmlns="http://www.w3.org/2000/svg" viewBox="0 0 560 560"><defs><filter id="b"><feGaussianBlur stdDeviation="6"/></filter></defs><g filter="url(#b)" fill="#1e160b"><ellipse cx="437" cy="326" rx="87" ry="55" opacity="0.09"/><ellipse cx="386" cy="90" rx="71" ry="57" opacity="0.07"/><ellipse cx="261" cy="424" rx="45" ry="34" opacity="0.07"/><ellipse cx="375" cy="469" rx="60" ry="41" opacity="0.12"/><ellipse cx="417" cy="62" rx="50" ry="53" opacity="0.08"/><ellipse cx="98" cy="474" rx="88" ry="39" opacity="0.14"/><ellipse cx="489" cy="277" rx="44" ry="35" opacity="0.14"/></g><g fill="#1c140a"><circle cx="275" cy="384" r="1.9" opacity="0.28"/><circle cx="184" cy="333" r="1.5" opacity="0.32"/><circle cx="158" cy="33" r="0.9" opacity="0.41"/><circle cx="247" cy="478" r="1.7" opacity="0.17"/><circle cx="195" cy="190" r="1.7" opacity="0.29"/><circle cx="50" cy="502" r="1.4" opacity="0.14"/><circle cx="255" cy="256" r="0.7" opacity="0.28"/><circle cx="300" cy="332" r="0.6" opacity="0.37"/><circle cx="157" cy="532" r="1.3" opacity="0.28"/><circle cx="30" cy="553" r="2.6" opacity="0.15"/><circle cx="185" cy="476" r="1.1" opacity="0.35"/><circle cx="310" cy="139" r="1.1" opacity="0.19"/><circle cx="385" cy="199" r="1.3" opacity="0.41"/><circle cx="231" cy="164" r="1.7" opacity="0.20"/><circle cx="44" cy="414" r="0.7" opacity="0.23"/><circle cx="440" cy="477" r="0.7" opacity="0.17"/><circle cx="385" cy="77" r="0.9" opacity="0.21"/><circle cx="51" cy="281" r="1.3" opacity="0.26"/><circle cx="415" cy="536" r="1.8" opacity="0.41"/><circle cx="141" cy="111" r="1.3" opacity="0.33"/><circle cx="20" cy="531" r="1.6" opacity="0.21"/><circle cx="152" cy="33" r="1.7" opacity="0.28"/><circle cx="8" cy="176" r="2.6" opacity="0.18"/><circle cx="544" cy="400" r="1.9" opacity="0.29"/><circle cx="57" cy="306" r="1.0" opacity="0.36"/><circle cx="68" cy="312" r="0.8" opacity="0.19"/><circle cx="32" cy="351" r="0.6" opacity="0.17"/><circle cx="365" cy="41" r="1.3" opacity="0.38"/><circle cx="113" cy="60" r="2.5" opacity="0.26"/><circle cx="431" cy="309" r="1.6" opacity="0.15"/><circle cx="201" cy="471" r="1.3" opacity="0.41"/><circle cx="35" cy="437" r="1.3" opacity="0.24"/><circle cx="349" cy="406" r="0.9" opacity="0.33"/><circle cx="255" cy="515" r="1.6" opacity="0.40"/><circle cx="497" cy="149" r="1.3" opacity="0.31"/><circle cx="54" cy="67" r="2.3" opacity="0.42"/><circle cx="338" cy="391" r="1.7" opacity="0.21"/><circle cx="420" cy="428" r="2.2" opacity="0.21"/><circle cx="181" cy="181" r="2.6" opacity="0.27"/><circle cx="98" cy="205" r="2.5" opacity="0.28"/><circle cx="269" cy="263" r="1.8" opacity="0.27"/><circle cx="333" cy="425" r="1.2" opacity="0.30"/><circle cx="527" cy="213" r="2.4" opacity="0.20"/><circle cx="30" cy="380" r="1.8" opacity="0.34"/><circle cx="323" cy="391" r="0.6" opacity="0.21"/><circle cx="109" cy="337" r="1.8" opacity="0.34"/><circle cx="317" cy="550" r="0.8" opacity="0.20"/><circle cx="217" cy="15" r="2.3" opacity="0.39"/><circle cx="172" cy="129" r="1.6" opacity="0.29"/><circle cx="425" cy="269" r="1.7" opacity="0.38"/><circle cx="524" cy="248" r="0.6" opacity="0.23"/><circle cx="188" cy="299" r="2.0" opacity="0.16"/><circle cx="165" cy="306" r="2.4" opacity="0.32"/><circle cx="174" cy="112" r="0.6" opacity="0.26"/><circle cx="106" cy="203" r="0.6" opacity="0.26"/><circle cx="195" cy="50" r="1.0" opacity="0.35"/><circle cx="243" cy="203" r="2.2" opacity="0.16"/><circle cx="338" cy="80" r="2.3" opacity="0.16"/><circle cx="141" cy="319" r="1.0" opacity="0.40"/><circle cx="385" cy="176" r="2.2" opacity="0.23"/><circle cx="258" cy="353" r="1.1" opacity="0.27"/><circle cx="85" cy="516" r="2.3" opacity="0.30"/><circle cx="420" cy="288" r="2.4" opacity="0.29"/><circle cx="195" cy="267" r="0.9" opacity="0.41"/><circle cx="509" cy="44" r="1.4" opacity="0.18"/><circle cx="480" cy="520" r="2.4" opacity="0.38"/><circle cx="215" cy="319" r="1.5" opacity="0.22"/><circle cx="197" cy="529" r="1.0" opacity="0.27"/><circle cx="250" cy="521" r="2.4" opacity="0.23"/><circle cx="391" cy="458" r="1.3" opacity="0.39"/><circle cx="445" cy="219" r="2.5" opacity="0.38"/><circle cx="168" cy="265" r="2.2" opacity="0.27"/><circle cx="243" cy="390" r="0.8" opacity="0.40"/><circle cx="95" cy="306" r="2.4" opacity="0.42"/><circle cx="319" cy="133" r="0.8" opacity="0.17"/><circle cx="111" cy="62" r="2.2" opacity="0.22"/><circle cx="159" cy="536" r="2.1" opacity="0.41"/><circle cx="386" cy="350" r="2.4" opacity="0.28"/><circle cx="150" cy="210" r="1.7" opacity="0.16"/><circle cx="149" cy="396" r="2.0" opacity="0.30"/></g></svg>